<?xml version="1.0" standalone="no"?>
<!DOCTYPE svg PUBLIC "-//W3C//DTD SVG 20010904//EN"
 "http://www.w3.org/TR/2001/REC-SVG-20010904/DTD/svg10.dtd">
<svg version="1.0" xmlns="http://www.w3.org/2000/svg"
 width="300.000000pt" height="300.000000pt" viewBox="0 0 300.000000 300.000000"
 preserveAspectRatio="xMidYMid meet">
<metadata>
Created by potrace 1.10, written by Peter Selinger 2001-2011
</metadata>
<g transform="translate(0.000000,300.000000) scale(0.050000,-0.050000)"
fill="#000000" stroke="none">
<path d="M2760 5988 c-2538 -223 -3673 -3308 -1881 -5109 1877 -1886 5104
-559 5108 2101 3 1777 -1481 3161 -3227 3008z m714 -86 c940 -184 1614 -660
2104 -1485 746 -1259 312 -3034 -946 -3861 -1820 -1198 -4219 -116 -4541 2049
-283 1907 1517 3661 3383 3297z"/>
<path d="M2874 5625 c-5 -8 -33 -89 -63 -180 -30 -91 -63 -165 -73 -165 -10 0
-18 -13 -18 -30 0 -20 20 -30 57 -30 70 0 90 18 60 54 -16 19 -17 34 -3 48 29
29 137 14 131 -17 -3 -14 -7 -36 -10 -50 -5 -27 89 -45 138 -27 24 10 22 20
-10 67 -21 30 -64 120 -94 200 -49 129 -90 175 -115 130z m52 -185 c12 -47 -7
-64 -44 -41 -16 10 -21 32 -13 59 16 49 41 41 57 -18z"/>
<path d="M3550 5580 c-8 -14 -3 -32 11 -41 37 -23 -7 -259 -55 -294 -49 -36
-17 -55 141 -83 158 -27 151 -30 166 66 14 80 -17 99 -53 32 -29 -53 -148 -58
-133 -5 6 19 21 87 33 150 13 63 31 115 41 115 11 0 19 14 19 30 0 17 -16 30
-35 30 -19 0 -54 6 -78 12 -23 6 -49 1 -57 -12z"/>
<path d="M2055 5534 c-98 -21 -116 -44 -65 -82 36 -27 75 -222 60 -293 l-12
-52 151 31 c129 26 151 37 151 71 -1 41 -33 108 -44 90 -3 -5 -16 -27 -28 -49
-40 -72 -128 -65 -128 11 0 58 5 62 50 51 57 -14 66 20 27 94 l-23 43 -17 -46
c-23 -63 -66 -44 -73 34 -7 71 67 92 116 33 34 -41 57 -21 45 40 -11 56 -44
60 -210 24z"/>
<path d="M4314 5407 c-8 -7 -5 -24 6 -37 24 -29 -65 -244 -116 -283 -38 -27
-20 -55 50 -76 37 -11 43 -5 42 43 -1 31 13 88 30 126 l31 70 1 -144 c2 -187
22 -194 153 -53 60 64 109 108 109 98 0 -49 -68 -191 -93 -191 -56 0 -24 -58
44 -80 77 -26 107 -16 75 25 -28 34 68 295 108 295 47 0 18 46 -41 66 -50 16
-64 8 -164 -99 l-109 -117 3 156 c2 86 -5 163 -15 173 -27 25 -99 43 -114 28z"/>
<path d="M1271 5267 c-96 -50 -97 -52 -57 -84 57 -45 131 -222 117 -278 -14
-53 0 -55 97 -14 70 28 82 69 22 69 -15 0 -33 19 -40 42 -25 78 1 72 141 -31
17 -12 45 -10 79 5 55 25 51 64 -6 64 -61 1 -138 74 -109 103 119 119 -69 215
-244 124z m172 -56 c25 -54 -3 -111 -53 -111 -42 0 -83 120 -48 142 47 30 78
20 101 -31z"/>
<path d="M2630 5029 c-597 -113 -1174 -531 -1437 -1043 -40 -79 -41 -86 -3
-86 17 0 30 8 30 19 0 10 53 98 118 195 613 915 1830 1159 2770 556 236 -150
556 -502 654 -716 23 -52 78 -76 78 -34 0 11 -29 67 -64 125 -450 745 -1314
1141 -2146 984z"/>
<path d="M3238 4483 c-80 -62 -163 -97 -268 -112 -55 -8 -114 -27 -131 -43
-70 -62 -155 -58 -194 9 -46 83 -145 91 -145 13 0 -31 -11 -50 -30 -50 -17 0
-30 -18 -30 -41 0 -22 -11 -43 -25 -47 -150 -42 -478 -113 -525 -113 -193 -1
-313 -240 -210 -419 106 -186 340 -692 340 -736 0 -83 120 -324 162 -324 19 0
41 -20 49 -45 7 -25 59 -142 113 -261 55 -119 105 -254 111 -300 30 -234 193
-349 344 -244 120 82 189 86 220 12 30 -72 60 -78 112 -21 27 30 57 40 112 36
94 -7 114 11 67 63 -49 54 -49 54 213 118 125 31 304 80 397 109 94 29 224 60
290 69 126 16 141 35 101 129 -11 25 -6 35 17 35 18 0 32 9 32 20 0 11 -9 20
-20 20 -11 0 -20 9 -20 20 0 11 14 20 30 20 17 0 30 9 30 20 0 11 -10 20 -21
20 -12 0 -15 10 -8 21 7 12 -2 38 -20 57 -17 20 -27 50 -20 67 6 17 -16 82
-50 146 -35 66 -61 145 -61 187 -1 79 -12 102 -66 132 -65 36 -171 254 -148
304 32 73 -96 345 -171 360 -54 11 -151 117 -128 140 6 6 -2 38 -19 70 -35 67
-28 85 26 68 41 -13 58 -92 21 -92 -17 0 -17 -6 0 -23 18 -18 36 -18 74 -1 62
28 17 219 -46 193 -76 -31 -103 -33 -103 -6 0 15 -36 80 -80 145 -44 64 -80
141 -80 170 0 129 -136 188 -242 105z m201 -48 c10 -25 24 -77 30 -117 7 -41
42 -107 83 -155 80 -93 83 -151 8 -158 -74 -7 -119 39 -146 148 -24 99 -59
122 -70 48 -8 -50 -85 -73 -142 -42 -32 17 -38 34 -29 81 14 69 -2 74 -106 30
-95 -40 -154 -38 -194 7 -45 49 -24 63 91 63 105 0 208 35 290 99 71 56 162
54 185 -4z m-841 -171 c-106 -44 -164 -22 -80 30 55 35 75 39 105 19 36 -21
34 -25 -25 -49z m382 -82 c-39 -22 -420 -128 -655 -183 -102 -23 -185 -48
-184 -56 0 -7 18 -49 39 -93 l38 -80 -4 65 c-2 36 -11 65 -19 65 -8 0 -15 7
-15 17 0 9 29 12 65 8 52 -6 59 -3 35 15 -24 18 -17 21 35 15 36 -4 65 -3 65
4 0 20 177 66 207 55 16 -6 38 -1 49 10 12 12 60 23 108 26 47 2 156 10 241
17 138 12 159 9 195 -27 22 -22 40 -34 40 -27 0 7 17 -6 37 -29 29 -34 42 -37
62 -18 20 19 23 15 12 -21 -10 -33 -6 -45 18 -45 17 0 32 -9 34 -20 1 -11 3
-28 5 -38 1 -10 9 -25 17 -34 8 -8 15 -36 15 -61 0 -54 -14 -57 -69 -16 -21
16 -53 29 -70 29 -19 0 -23 -6 -10 -15 12 -8 28 -32 36 -53 12 -32 9 -34 -17
-12 -16 14 -30 18 -30 10 0 -8 -12 -5 -26 7 -20 16 -33 16 -51 -2 -19 -19 -33
-19 -63 1 -34 20 -40 19 -40 -7 0 -17 -8 -26 -19 -20 -10 6 -24 -7 -31 -30 -8
-24 -25 -38 -41 -31 -17 6 -23 0 -16 -19 6 -16 1 -29 -11 -29 -12 0 -20 -10
-17 -23 3 -12 -44 -32 -108 -46 -62 -12 -144 -47 -183 -77 -39 -30 -89 -54
-111 -54 -22 0 -66 -10 -97 -23 -142 -57 -148 -52 -306 253 -138 267 -191 412
-141 380 13 -7 34 -5 47 6 21 17 684 188 814 210 95 16 153 14 120 -4z m446
-216 c38 -57 82 -131 96 -164 19 -41 46 -65 86 -74 l59 -13 -48 -27 c-88 -48
-148 -20 -172 82 -2 11 -27 82 -56 158 -72 195 -71 196 35 38z m-1590 19 c4
-27 -9 -51 -37 -66 -38 -20 -42 -35 -34 -112 9 -73 5 -87 -19 -78 -16 6 -42
11 -58 11 -59 0 -21 172 57 255 50 53 82 49 91 -10z m251 -408 l150 -293 -60
-82 c-74 -100 -71 -100 -97 -2 -12 44 -30 80 -40 80 -10 0 -14 14 -7 30 6 17
2 30 -9 30 -11 0 -26 33 -33 73 -8 40 -27 86 -43 101 -15 16 -24 37 -18 46 6
10 1 23 -11 31 -40 24 -62 112 -36 142 13 16 22 62 21 101 -4 100 10 80 183
-257z m1423 -96 c72 -144 100 -279 37 -176 -50 81 -162 333 -152 343 20 20 22
17 115 -167z m210 127 c0 -29 28 -65 81 -104 46 -34 72 -66 61 -73 -31 -19
-262 -33 -259 -16 6 25 -27 133 -49 160 -24 31 -21 34 56 59 89 29 110 24 110
-26z m-312 -151 c48 -108 67 -170 54 -183 -20 -20 -162 260 -162 318 0 66 39
17 108 -135z m-148 134 c0 -6 -27 -24 -60 -41 -68 -35 -80 -90 -20 -90 43 0
55 -32 16 -45 -58 -19 25 -138 87 -124 75 16 74 -21 -2 -60 -110 -57 -137 -43
-202 101 -71 158 -72 175 -13 213 62 41 194 72 194 46z m-314 -156 c5 -14 0
-41 -10 -60 -13 -26 -9 -39 13 -47 17 -7 26 -20 21 -29 -6 -9 7 -22 29 -29
105 -33 6 -84 -170 -88 -229 -5 -258 190 -38 249 127 34 144 34 155 4z m940
-90 c-13 -4 -18 -22 -11 -40 8 -21 4 -27 -11 -17 -13 8 -40 5 -59 -6 -19 -12
-25 -21 -13 -21 12 -1 21 -12 21 -26 0 -14 15 -56 33 -95 37 -79 114 -277 114
-291 0 -5 -18 2 -40 16 -22 13 -40 34 -40 46 0 12 -14 39 -31 60 -31 38 -32
38 -22 -6 6 -28 -3 -53 -24 -67 -30 -19 -30 -20 2 -10 56 17 29 -94 -39 -162
-52 -51 -198 -113 -235 -99 -18 7 -29 2 -26 -12 3 -13 -16 -27 -42 -31 -30 -5
-43 0 -34 14 21 34 -1 26 -32 -12 -18 -23 -19 -29 -2 -19 14 9 25 5 25 -8 0
-15 -28 -21 -80 -16 -56 6 -80 0 -80 -17 0 -15 -18 -26 -40 -26 -22 0 -40 -10
-40 -22 0 -14 17 -17 45 -9 139 43 478 113 503 104 30 -11 -72 -50 -218 -82
-202 -45 -536 -129 -607 -153 -51 -17 -72 -17 -82 0 -8 13 -29 18 -47 11 -29
-11 -271 444 -323 607 -21 65 248 169 419 162 33 -1 96 7 140 19 69 18 85 16
121 -18 60 -56 99 -49 185 37 78 78 124 88 124 27 -1 -28 -3 -29 -19 -4 -10
17 -24 25 -30 18 -7 -6 2 -23 20 -37 26 -23 33 -20 42 17 7 24 20 43 31 43 10
0 13 -9 6 -20 -7 -11 3 -20 21 -20 21 0 29 11 22 30 -7 17 -2 30 10 30 11 0
46 27 78 61 51 55 66 60 173 56 64 -2 105 -7 92 -12z m-1282 -80 c9 -35 35
-74 57 -86 57 -30 34 -52 -72 -68 -106 -16 -180 -75 -274 -220 -69 -105 -115
-137 -115 -79 0 19 -14 80 -32 137 l-32 102 58 98 c53 92 68 102 197 143 174
55 193 53 213 -27z m1564 -363 c9 -76 31 -145 63 -191 87 -129 62 -155 -169
-178 -71 -7 -159 -31 -197 -53 -84 -50 -85 -50 -85 6 0 76 55 133 142 147 73
11 77 15 49 46 -54 60 5 161 69 120 48 -30 63 -22 39 22 -31 60 -30 160 3 181
56 35 73 16 86 -100z m-1729 -30 c10 -26 68 -157 130 -291 61 -134 111 -250
111 -259 0 -13 -80 -14 -95 -1 -3 2 -13 5 -23 7 -10 1 -39 29 -64 62 -26 33
-54 66 -64 72 -10 7 -16 16 -15 20 16 53 -67 164 -84 113 -5 -14 -15 19 -23
72 -11 72 -8 105 14 130 16 18 35 53 43 78 18 58 47 57 70 -3z m1843 -362 c0
-11 -21 -23 -46 -26 -78 -9 -318 -68 -311 -76 4 -4 83 6 174 22 95 17 179 22
196 12 38 -21 -12 -35 -201 -54 -111 -11 -214 -48 -134 -48 12 0 17 -9 10 -20
-16 -25 4 -25 132 2 72 16 95 28 76 40 -20 12 -8 17 36 18 35 0 69 -9 76 -20
7 -11 -7 -20 -31 -20 -37 0 -40 -5 -19 -30 20 -24 20 -30 -3 -30 -22 -1 -22
-4 -1 -17 17 -11 -21 -28 -108 -50 -74 -18 -139 -29 -145 -23 -5 5 19 15 54
22 95 19 91 39 -6 31 -71 -5 -87 0 -96 32 -9 36 -19 38 -120 19 l-111 -20 39
-69 c21 -38 36 -72 33 -75 -17 -16 -547 -146 -560 -137 -39 24 -5 45 144 87
89 25 157 50 152 55 -5 5 -75 -9 -156 -32 -229 -64 -483 -123 -530 -123 -41 0
-117 -56 -100 -73 4 -4 46 6 93 23 103 36 127 37 117 7 -11 -32 -176 -80 -231
-67 -121 29 -49 291 91 329 395 108 891 227 964 231 50 3 126 20 170 37 44 17
116 32 160 34 44 1 98 10 120 19 47 20 73 16 72 -10z m-1729 -350 c16 0 33 14
40 30 13 34 58 40 77 10 6 -10 -8 -46 -32 -78 -94 -128 -19 -316 117 -295 82
13 82 3 2 -38 -119 -62 -246 59 -262 251 -5 61 -16 133 -23 160 l-14 50 33
-45 c19 -25 47 -45 62 -45z m1287 60 c11 18 25 19 53 3 20 -12 26 -22 13 -22
-14 -1 -20 -14 -13 -31 6 -16 6 -30 -1 -30 -22 0 -92 69 -90 89 0 12 6 9 12
-6 8 -21 14 -22 26 -3z m-649 -335 c-42 -43 -145 -24 -136 25 7 34 20 49 38
42 15 -6 27 -1 27 12 0 12 18 1 40 -24 22 -26 36 -50 31 -55z"/>
<path d="M3351 4406 c-8 -22 0 -45 23 -61 31 -23 37 -22 43 5 15 75 -40 122
-66 56z"/>
<path d="M3740 3112 c0 -16 -11 -32 -24 -37 -19 -6 -19 -11 0 -23 13 -8 24 -5
24 6 0 11 14 16 30 9 33 -12 36 -6 18 41 -15 40 -48 42 -48 4z"/>
<path d="M2720 2744 c0 -14 15 -55 34 -90 19 -35 36 -77 39 -93 11 -68 75
-181 103 -181 50 0 15 136 -47 185 -30 23 -71 79 -91 123 -20 45 -37 70 -38
56z"/>
<path d="M3060 2478 c0 -7 -20 -22 -45 -35 -38 -19 -33 -20 35 -10 119 18 160
57 60 57 -27 0 -50 -5 -50 -12z"/>
<path d="M2240 3132 c0 -47 51 -108 72 -86 7 6 6 39 -2 73 -16 72 -70 83 -70
13z"/>
<path d="M4155 2641 c-7 -23 1 -43 21 -50 31 -13 63 19 64 64 0 41 -74 29 -85
-14z"/>
<path d="M3440 2209 c-309 -99 -669 -176 -550 -118 33 16 45 25 26 20 -18 -5
-69 -18 -113 -30 -43 -12 -84 -36 -91 -53 -10 -25 -4 -29 23 -19 19 8 85 23
145 34 119 21 705 175 718 189 18 17 -72 4 -158 -23z"/>
<path d="M1090 2260 c-7 -11 26 -94 74 -185 789 -1517 2908 -1507 3684 17 80
158 83 168 47 168 -14 0 -64 -76 -111 -168 -752 -1473 -2933 -1438 -3594 57
-50 113 -79 145 -100 111z"/>
<path d="M1668 1049 c13 -35 -78 -229 -108 -229 -38 0 -20 -34 31 -57 65 -29
74 -29 63 2 -5 14 1 43 12 65 25 48 50 3 53 -94 1 -36 15 -58 43 -66 58 -19
60 -11 27 100 -32 108 -25 121 76 143 66 14 70 37 12 68 -36 20 -48 15 -86
-32 -24 -30 -57 -50 -72 -45 -21 7 -14 23 28 61 l56 52 -60 32 c-76 39 -90 39
-75 0z"/>
<path d="M4453 995 c-75 -40 -76 -42 -39 -73 57 -46 127 -177 113 -212 -15
-39 34 -39 84 0 37 28 37 31 4 51 -19 12 -35 35 -35 52 0 28 5 28 49 -1 63
-41 151 -42 151 -2 0 17 -14 30 -31 30 -68 0 -111 39 -89 81 58 107 -66 151
-207 74z m137 -74 c0 -65 -38 -73 -65 -14 -25 54 -13 77 34 68 18 -3 31 -26
31 -54z"/>
<path d="M2219 837 c0 -4 -4 -48 -7 -99 -7 -97 -40 -178 -73 -178 -58 0 -3
-38 101 -70 131 -40 129 -40 149 25 15 49 -23 63 -64 22 -38 -38 -90 -4 -74
48 20 65 29 69 53 27 24 -42 55 -11 56 55 0 30 -6 33 -28 14 -34 -27 -58 1
-40 47 17 45 70 40 82 -9 13 -50 54 -41 62 14 5 32 -12 45 -77 65 -46 14 -96
30 -111 36 -15 5 -28 7 -29 3z"/>
<path d="M3960 806 c-112 -39 -114 -41 -76 -71 44 -35 82 -167 67 -228 -9 -36
-5 -48 13 -43 14 4 69 20 121 34 78 22 95 35 95 73 0 68 -37 80 -60 20 -21
-57 -69 -68 -88 -19 -21 55 -13 71 28 58 44 -14 53 19 20 70 -17 25 -23 26
-38 2 -21 -32 -62 -13 -62 30 0 39 60 61 80 28 23 -37 58 -7 46 40 -12 47 -26
47 -146 6z"/>
<path d="M2760 670 c27 -33 11 -202 -23 -243 -26 -33 -4 -42 123 -50 107 -7
110 -6 116 48 7 58 -24 76 -43 25 -20 -53 -93 -37 -93 20 0 52 27 66 52 27 10
-16 20 -8 31 21 22 59 3 91 -35 60 -37 -31 -55 -12 -38 40 16 51 61 54 88 7
25 -44 69 -8 51 42 -10 26 -40 33 -134 33 -104 0 -117 -4 -95 -30z"/>
<path d="M3316 690 c-6 -7 2 -40 19 -73 21 -43 26 -92 18 -162 l-12 -100 63
13 c72 14 97 33 61 46 -50 18 -27 81 34 93 67 13 102 94 67 151 -20 32 -224
58 -250 32z m174 -90 c0 -31 -13 -52 -35 -56 -27 -5 -35 7 -35 56 0 49 8 61
35 56 22 -4 35 -25 35 -56z"/>
</g>
</svg>
